<svg version="1.1" id="Layer_1" xmlns="http://www.w3.org/2000/svg" xmlns:xlink="http://www.w3.org/1999/xlink" x="0px" y="0px"
	 width="100%" viewBox="0 0 288 288" enable-background="new 0 0 288 288" xml:space="preserve">
<path fill="#000000" opacity="1.000000" stroke="none" 
	d="
M45.864586,154.813934 
	C41.773357,143.856583 43.680950,134.638779 51.320751,127.423363 
	C58.195309,120.930695 69.135651,119.450668 78.343895,123.767654 
	C85.979462,127.347328 91.625137,136.969498 91.290993,145.833939 
	C90.903145,156.123260 83.196182,165.752792 73.491241,168.074020 
	C61.941399,170.836502 51.936596,166.144485 45.864586,154.813934 
M79.377151,128.075897 
	C69.185738,121.364624 57.022186,123.500923 50.344234,133.174973 
	C43.723419,142.766251 45.824856,154.709747 55.394512,161.878174 
	C64.331978,168.573059 76.850784,166.732300 83.778618,157.704590 
	C90.946106,148.364594 89.354408,136.146729 79.377151,128.075897 
z"/>
<path fill="#000000" opacity="1.000000" stroke="none" 
	d="
M116.158630,152.583969 
	C113.603325,154.258545 112.426056,152.577301 111.131256,150.954880 
	C109.949394,149.473999 109.353508,147.315277 107.095184,147.025314 
	C106.849808,147.186096 106.676323,147.244888 106.588104,147.365845 
	C105.328178,149.093521 107.338448,153.110992 103.906815,152.867355 
	C100.311127,152.612045 102.002472,148.940598 101.787621,146.739990 
	C101.513626,143.933716 101.604546,141.075150 101.752190,138.250305 
	C101.848862,136.400467 100.793839,133.717087 103.377052,133.056763 
	C106.751167,132.194305 110.349419,131.945847 113.429199,134.307037 
	C115.398537,135.816879 116.304909,138.591583 115.038887,140.081131 
	C110.966270,144.872818 113.879471,148.453796 116.158630,152.583969 
M106.154381,138.015579 
	C106.242561,139.592529 105.540977,141.635117 107.597008,142.295929 
	C109.206688,142.813293 110.371353,141.564926 111.082314,140.150726 
	C111.776810,138.769302 111.358246,137.505417 110.217560,136.620483 
	C108.730904,135.467163 107.222862,135.074005 106.154381,138.015579 
z"/>
<path fill="#000000" opacity="1.000000" stroke="none" 
	d="
M202.332474,149.859467 
	C202.161713,151.636688 202.115082,153.111023 200.216690,153.058762 
	C198.672562,153.016220 198.222046,151.773483 198.360168,150.610107 
	C199.030365,144.965591 197.436981,139.320236 198.463745,133.676285 
	C198.705811,132.345688 198.509293,130.867126 200.420944,130.828903 
	C202.314606,130.791031 202.531418,132.162888 202.423813,133.577591 
	C202.226471,136.172379 202.981445,137.733963 205.954712,137.686508 
	C209.716370,137.626434 210.710297,140.329224 210.840424,143.350952 
	C210.947021,145.826401 210.567520,148.323181 210.396103,150.810013 
	C210.325089,151.840408 210.156448,152.937866 208.900101,153.039978 
	C207.409393,153.161163 206.892014,152.088196 206.839691,150.798141 
	C206.765549,148.969818 206.837830,147.133850 206.718933,145.309525 
	C206.617676,143.756088 207.141418,141.456924 204.664825,141.558823 
	C202.537277,141.646332 202.512375,143.756973 202.417053,145.427368 
	C202.341278,146.755325 202.367584,148.089142 202.332474,149.859467 
z"/>
<path fill="#000000" opacity="1.000000" stroke="none" 
	d="
M165.016937,143.621307 
	C167.896774,142.678894 167.427643,141.674606 165.304382,140.965637 
	C164.005371,140.531891 162.309387,141.736755 161.081497,139.839752 
	C162.022781,136.415985 164.972244,137.877686 167.082321,137.755463 
	C169.311081,137.626358 170.938309,138.998322 171.252213,141.218140 
	C171.619904,143.818237 171.589584,146.474380 171.737427,149.105896 
	C171.870560,151.475433 171.625214,153.457199 168.436249,153.302811 
	C164.897827,153.131500 160.702972,154.273682 159.258102,149.573471 
	C158.296188,146.444412 160.310257,144.635574 163.209641,143.796112 
	C163.677307,143.660721 164.192886,143.690735 165.016937,143.621307 
z"/>
<path fill="#000000" opacity="1.000000" stroke="none" 
	d="
M123.425903,153.204193 
	C118.281601,151.202515 117.276031,147.587631 118.423706,142.988617 
	C119.366478,139.210693 121.723206,137.473709 125.656906,137.672318 
	C129.280167,137.855255 131.041824,139.788757 131.466919,143.225555 
	C131.980103,147.374527 128.679184,146.417664 126.493111,146.938309 
	C125.399559,147.198746 124.135414,146.786438 123.035294,147.952576 
	C124.135155,151.892639 128.246262,148.380127 130.155869,150.860733 
	C129.175873,154.379471 126.168884,153.063187 123.425903,153.204193 
z"/>
<path fill="#000000" opacity="1.000000" stroke="none" 
	d="
M150.621597,147.466400 
	C149.869110,150.344498 151.785233,150.142288 153.436066,150.025360 
	C154.734909,149.933365 156.064850,149.313599 157.167801,151.050797 
	C155.666107,154.429550 152.568405,153.549026 150.063293,153.155014 
	C145.813873,152.486679 143.584335,147.580322 145.043365,142.874359 
	C146.389450,138.532715 150.363251,136.392365 154.395584,137.941650 
	C157.067963,138.968445 158.322144,141.270935 158.011093,143.878784 
	C157.477020,148.356537 153.420380,146.446106 150.621597,147.466400 
z"/>
<path fill="#000000" opacity="1.000000" stroke="none" 
	d="
M237.785477,158.983688 
	C235.932144,160.471222 234.357742,160.979813 232.747650,159.291504 
	C236.748550,153.875977 236.702591,153.892471 234.265884,147.100845 
	C233.228210,144.208572 231.504776,141.473480 231.733246,137.495773 
	C237.023636,138.026245 235.877075,143.452087 238.649155,145.740005 
	C241.613297,143.965027 240.076950,138.442764 245.564285,137.623627 
	C244.270630,145.553314 241.594208,152.269302 237.785477,158.983688 
z"/>
<path fill="#000000" opacity="1.000000" stroke="none" 
	d="
M137.020142,146.568222 
	C134.165924,144.738358 130.947052,142.909363 133.560425,139.462570 
	C135.682755,136.663422 138.931351,136.942444 141.744263,138.890137 
	C141.661987,141.541992 139.096237,140.726868 137.866470,142.075546 
	C140.378876,144.234924 144.483734,145.132065 143.456635,149.459869 
	C143.011810,151.334167 141.612610,152.821060 139.688187,153.050674 
	C137.300079,153.335648 134.458054,154.426163 132.711472,151.232010 
	C139.092575,149.140564 139.092575,149.140564 137.020142,146.568222 
z"/>
<path fill="#000000" opacity="1.000000" stroke="none" 
	d="
M222.589722,144.299438 
	C221.399292,140.631271 221.087280,137.479767 222.964417,134.264374 
	C224.875671,130.990524 228.294495,130.660538 231.196136,133.687714 
	C230.549759,135.774460 227.864868,133.947510 227.062698,135.959473 
	C226.479919,138.144760 229.500412,137.212570 229.788528,139.165070 
	C224.699081,141.909363 226.981262,147.119370 226.149689,151.450363 
	C225.976334,152.353241 225.478119,152.950653 224.510986,153.010086 
	C223.242767,153.087997 222.646164,152.263474 222.599014,151.197205 
	C222.503540,149.038666 222.583328,146.872406 222.589722,144.299438 
z"/>
<path fill="#000000" opacity="1.000000" stroke="none" 
	d="
M195.646667,139.424133 
	C195.128342,141.084671 194.035751,141.255753 192.804474,141.198547 
	C189.945312,141.065704 188.467773,142.518295 188.317398,145.304916 
	C188.152908,148.353149 189.652023,149.932281 192.716461,150.053223 
	C193.680771,150.091278 194.765961,149.988251 195.155212,151.246063 
	C192.963959,153.821060 190.098465,154.136536 187.326797,152.109924 
	C183.920685,149.619415 182.869568,143.912567 185.182877,140.470001 
	C187.284515,137.342438 191.641098,136.756241 195.646667,139.424133 
z"/>
<path fill="#000000" opacity="1.000000" stroke="none" 
	d="
M174.975800,151.472900 
	C174.810913,148.545197 174.711487,146.050949 174.727402,143.557434 
	C174.768402,137.138855 177.704025,135.708420 184.259277,139.434540 
	C179.183640,140.862366 178.835037,144.536804 178.901245,148.725937 
	C178.967667,152.926651 178.530853,153.072403 174.975800,151.472900 
z"/>
<path fill="#000000" opacity="1.000000" stroke="none" 
	d="
M214.273193,141.551773 
	C214.679489,139.644440 214.394379,137.497452 216.871170,137.764999 
	C218.884369,137.982498 218.777924,139.868683 218.765564,141.246063 
	C218.737579,144.360992 218.471848,147.475021 218.259064,150.586426 
	C218.177948,151.772827 217.925140,153.027588 216.357788,152.891541 
	C214.857681,152.761292 214.749771,151.462631 214.678207,150.302414 
	C214.506546,147.519440 214.376984,144.733871 214.273193,141.551773 
z"/>
<path fill="#000000" opacity="1.000000" stroke="none" 
	d="
M73.802567,137.232513 
	C77.755791,140.001022 79.500679,147.574829 77.275299,151.076584 
	C74.712646,155.109070 67.502563,156.978516 63.479038,154.653717 
	C57.548096,151.226807 56.350811,148.830322 57.768116,141.690384 
	C58.695019,137.020950 63.331120,136.384842 66.722321,134.693604 
	C69.289009,133.413559 71.222649,136.181732 73.802567,137.232513 
M67.575096,143.503952 
	C69.714500,143.052689 71.631332,142.246628 72.864761,140.303680 
	C68.243019,135.881485 67.228859,135.898636 62.807487,140.642273 
	C64.211113,141.573792 65.570999,142.476288 67.575096,143.503952 
M62.288204,151.010803 
	C63.428513,151.617477 64.482628,152.565155 65.928398,151.966888 
	C67.253960,146.124588 66.540016,145.029861 60.587868,144.147858 
	C60.409157,146.422409 59.591854,148.695282 62.288204,151.010803 
z"/>
</svg>